
<svg xmlns="http://www.w3.org/2000/svg" version="1.1" xmlns:xlink="http://www.w3.org/1999/xlink" preserveAspectRatio="none" x="0px" y="0px" width="215px" height="136px" viewBox="0 0 215 136">
<defs>
<g id="Symbol_1_0_Layer0_0_MEMBER_0_FILL">
<path fill="#FFFFFF" stroke="none" d="
M 153.8 393.95
L 153.8 393.2 141.8 393.2 141.8 393.95
Q 143 394.15 143.95 396.55 144.65 398.3 147.65 408.35
L 154.85 432.45 156 432.45
Q 162.7 418.5 164.95 413.55 166.8 409.55 167.5 407.5
L 167.55 407.5
Q 169.3 412.1 178.7 432.45
L 179.8 432.45 187.05 408.3
Q 189.95 398.65 190.75 396.55 191.65 394.15 192.75 393.95
L 192.75 393.2 181.65 393.2 181.65 393.95
Q 183.35 394.15 183.25 396.05 183.1 397.6 181.2 404.45 179 411.95 178.25 415.4
L 178.1 415.4 173.55 404.55 168.3 393.9 167.25 393.9
Q 165.75 397.1 162.1 404.6 158.65 412.35 157.4 415.65
L 157.3 415.65
Q 156.05 410.7 154.15 404.25 152.3 397.6 152.2 396.05 152.05 394.15 153.8 393.95 Z"/>
</g>

<g id="Symbol_1_0_Layer0_0_MEMBER_1_FILL">
<path fill="#FFFFFF" stroke="none" d="
M 195.3 393.2
L 195.3 393.95
Q 196.7 394.1 197 396.6 197.25 398.7 197.25 408.75
L 197.25 415.35
Q 197.25 426.2 197 428.35 196.7 431 195.2 431.15
L 195.2 431.85 218 431.85
Q 218 427.15 218.1 423.55
L 217.4 423.55
Q 217.15 424.75 216.05 425.2 215.15 425.6 213.2 425.65 209.6 425.75 205.65 425.65 205.05 425.6 204.85 425.3 204.7 425.05 204.7 424.25
L 204.7 415.2 210.35 415.2
Q 213 415.2 213.9 415.45 214.9 415.75 215.1 416.6
L 215.8 416.6 215.8 408.05 215.1 408.05
Q 214.8 408.85 213.85 409.05 213 409.25 210.25 409.25
L 204.7 409.25 204.7 399.25 211.2 399.25
Q 213.85 399.25 215.05 399.75 216.45 400.25 216.65 401.6
L 217.4 401.6 217.6 393.2 195.3 393.2 Z"/>
</g>

<g id="Symbol_1_0_Layer0_0_MEMBER_2_FILL">
<path fill="#FFFFFF" stroke="none" d="
M 240.25 394
Q 237.65 393.1 233.7 393.1 232.3 393.1 227.95 393.25
L 223.35 393.3 223.35 394.1
Q 224.75 394.25 225.05 396.7 225.3 398.7 225.3 408.75
L 225.3 415.35
Q 225.3 426.15 225.05 428.35 224.7 431 223.15 431.05
L 223.15 431.75 232.65 431.9
Q 236.75 431.9 239.45 431.35 241.95 430.8 243.8 429.55 245.95 428.15 247.2 426.05 248.55 423.7 248.55 420.9
L 248.55 420.85
Q 248.55 417.3 246.2 414.7 244 412.25 240.7 411.7
L 240.7 411.65
Q 243.35 411 245.15 408.7 247 406.35 247 403.3 247 399.4 244.75 396.85 242.95 394.85 240.25 394
M 239.7 404
L 239.7 404.05
Q 239.7 405.9 238.65 407.2 237.75 408.3 236.35 408.75 235.15 409.2 233.6 409.2
L 232.2 409.15 232.2 399.25 234.35 399.1
Q 236.8 399.1 238.25 400.4 239.7 401.75 239.7 404
M 241 420.25
L 241 420.3
Q 241 423.35 238.25 424.85 236.7 425.7 234.6 425.7 233.2 425.7 232.6 425.6 232.2 425.4 232.2 424.6
L 232.2 415 234.1 414.9
Q 235.75 414.9 237.3 415.35 238.85 415.85 239.85 417 241 418.35 241 420.25 Z"/>
</g>

<g id="Symbol_1_0_Layer0_0_MEMBER_3_FILL">
<path fill="#FFFFFF" stroke="none" d="
M 275.1 393.2
L 252.8 393.2 252.8 393.95
Q 254.25 394.1 254.55 396.6 254.8 398.7 254.8 408.75
L 254.8 415.35
Q 254.8 426.2 254.55 428.35 254.2 431 252.7 431.15
L 252.7 431.85 275.5 431.85 275.65 423.55 274.9 423.55
Q 274.65 424.75 273.6 425.2 272.7 425.6 270.7 425.65 267.1 425.75 263.2 425.65 262.55 425.6 262.35 425.3 262.2 425.05 262.2 424.25
L 262.2 415.2 267.9 415.2
Q 270.55 415.2 271.45 415.45 272.45 415.75 272.65 416.6
L 273.35 416.6 273.35 408.05 272.65 408.05
Q 272.35 408.85 271.4 409.05 270.55 409.25 267.8 409.25
L 262.2 409.25 262.2 399.25 268.75 399.25
Q 271.4 399.25 272.6 399.75 273.95 400.25 274.15 401.6
L 274.9 401.6 275.1 393.2 Z"/>
</g>

<g id="Symbol_1_0_Layer0_0_MEMBER_4_FILL">
<path fill="#FFFFFF" stroke="none" d="
M 281.55 393.3
L 281.55 394.05
Q 283.05 394.1 283.35 396.6 283.6 398.7 283.6 408.75
L 283.6 415.35
Q 283.6 426.2 283.35 428.35 283.05 431 281.6 431.15
L 281.6 431.85 292.6 431.85 292.6 431.15
Q 291.25 431 290.9 428.8 290.65 427 290.65 418.9
L 290.65 416.8 292.3 416.85 301.95 431.25
Q 302.6 431.8 304.15 431.8
L 312.2 431.8 312.2 431.15
Q 310.75 430.9 308.25 427.5
L 299.3 415.4 299.3 415.25
Q 300.9 414.65 302.35 413.45 304.05 412.15 305.1 410.2 306.45 407.7 306.45 404.7 306.45 400.45 304.25 397.55 302.4 395.2 299.4 394.15 296.35 393.1 292.15 393.1
L 281.55 393.3
M 299 405
L 299 405.05
Q 299 408.7 296.2 410.25 294.55 411.35 292.3 411.35
L 290.65 411.3 290.65 399.35 292.85 399.2
Q 295.7 399.2 297.35 400.75 299 402.3 299 405 Z"/>
</g>

<g id="Symbol_1_0_Layer0_0_MEMBER_5_FILL">
<path fill="#FFFFFF" stroke="none" d="
M 346.9 393.85
Q 344.5 393 340.85 393 335.05 393 331.6 396.2 328.35 399.25 328.35 403.9 328.35 409.5 333.7 413.65 336.8 416.05 337.9 416.95 340.75 419.2 340.75 421.6 340.75 423.7 339.2 424.9 337.7 426.05 335.25 426.05 332.6 426.05 330.9 425.1 329.4 424.1 328.9 422.25
L 328.2 422.25 327.9 430.95
Q 331.05 432.35 335.75 432.35 341.6 432.35 345.15 429.25 348.6 426.2 348.6 421.5
L 348.6 421.45
Q 348.6 418.4 347.05 415.85 345.75 413.65 342.95 411.45 338.45 407.95 338 407.5 336 405.65 336 403.55 336 401.65 337.45 400.45 338.85 399.3 341.2 399.3 343 399.3 344.25 400.05 345.65 401 345.95 402.4
L 346.65 402.4
Q 346.75 397.1 346.9 393.85 Z"/>
</g>

<g id="Symbol_1_0_Layer0_0_MEMBER_6_FILL">
<path fill="#FFFFFF" stroke="none" d="
M 381.5 393.2
L 351.05 393.2 351.1 401.8 351.85 401.8
Q 352.2 400.4 353.15 399.8 354.05 399.25 355.95 399.25
L 362.6 399.25 362.6 415.35
Q 362.6 426.15 362.3 428.35 362 430.95 360.35 431.15
L 360.35 431.85 372.4 431.85 372.4 431.15
Q 370.7 431.1 370.35 428.45 370.05 426.25 370.05 415.35
L 370.05 399.25 376.7 399.25
Q 378.6 399.25 379.45 399.8 380.35 400.35 380.7 401.8
L 381.5 401.8 381.5 393.2 Z"/>
</g>

<g id="Symbol_1_0_Layer0_0_MEMBER_7_FILL">
<path fill="#FFFFFF" stroke="none" d="
M 396 392.65
L 394.8 392.65 385.1 415.3
Q 380.65 425.85 379.3 428.4 377.95 431 376.8 431.1
L 376.8 431.85 388.1 431.85 388.1 431.1
Q 386.7 431 386.9 429.45 387.1 428.25 388.85 424
L 401 424
Q 402.65 428.35 402.85 429.45 403.1 431 401.75 431.1
L 401.75 431.85 413.6 431.85 413.6 431.1
Q 412.45 431 411.15 428.35 409.9 426 405.5 415.35
L 396 392.65
M 398.9 418.3
L 390.95 418.3 391 418.15
Q 394.75 408.25 395 407.4
L 395.05 407.4
Q 395.55 409.2 398.85 418.15
L 398.9 418.3 Z"/>
</g>

<g id="Symbol_1_0_Layer0_0_MEMBER_8_FILL">
<path fill="#FFFFFF" stroke="none" d="
M 439.45 393.2
L 409 393.2 409.05 401.8 409.8 401.8
Q 410.15 400.4 411.1 399.8 412.05 399.25 413.9 399.25
L 420.6 399.25 420.6 415.35
Q 420.6 426.15 420.3 428.35 419.95 430.95 418.3 431.15
L 418.3 431.85 430.35 431.85 430.35 431.15
Q 428.65 431.1 428.3 428.45 428 426.25 428 415.35
L 428 399.25 434.7 399.25
Q 436.55 399.25 437.45 399.8 438.35 400.35 438.7 401.8
L 439.45 401.8 439.45 393.2 Z"/>
</g>

<g id="Symbol_1_0_Layer0_0_MEMBER_9_FILL">
<path fill="#FFFFFF" stroke="none" d="
M 443.25 393.2
L 443.25 393.95
Q 444.7 394.1 445 396.6 445.25 398.7 445.25 408.75
L 445.25 415.35
Q 445.25 426.2 445 428.35 444.65 431 443.15 431.15
L 443.15 431.85 465.95 431.85 466.1 423.55 465.35 423.55
Q 465.1 424.75 464.05 425.2 463.15 425.6 461.15 425.65 457.55 425.75 453.65 425.65 453 425.6 452.8 425.3 452.65 425.05 452.65 424.25
L 452.65 415.2 458.35 415.2
Q 461 415.2 461.9 415.45 462.9 415.75 463.1 416.6
L 463.8 416.6 463.8 408.05 463.1 408.05
Q 462.8 408.85 461.85 409.05 461 409.25 458.25 409.25
L 452.65 409.25 452.65 399.25 459.2 399.25
Q 461.85 399.25 463.05 399.75 464.45 400.25 464.65 401.6
L 465.35 401.6 465.55 393.2 443.25 393.2 Z"/>
</g>

<g id="Symbol_1_0_Layer0_0_MEMBER_10_FILL">
<path fill="#FFFFFF" stroke="none" d="
M 177.95 449.5
Q 178.15 447.7 179.2 447.6
L 179.2 447.2 172.85 447.2 172.85 447.6
Q 174.05 447.7 174.25 449.5 174.45 450.9 174.45 458.35
L 174.45 463.75
Q 174.45 468.45 172.5 470.7 170.6 473.05 166.95 473.05 163.1 473.05 161.2 470.6 159.35 468.3 159.35 463.9
L 159.35 458.35
Q 159.35 451 159.55 449.5 159.8 447.7 161 447.65
L 161 447.2 154.4 447.2 154.4 447.65
Q 155.5 447.7 155.7 449.5 155.9 451 155.9 458.35
L 155.9 464.1
Q 155.9 469.55 158.2 472.4 161.05 476.3 166.9 476.3 169.5 476.3 171.75 475.3 173.8 474.35 175.1 472.75 177.75 469.7 177.75 463.75
L 177.75 458.35
Q 177.75 451 177.95 449.5 Z"/>
</g>

<g id="Symbol_1_0_Layer0_0_MEMBER_11_FILL">
<path fill="#FFFFFF" stroke="none" d="
M 195.4 446.95
L 194.85 446.95 194.85 464.05
Q 194.85 471.9 194.65 473.45 194.45 475.35 193.3 475.45
L 193.3 475.9 199.55 475.9 199.55 475.4
Q 198.4 475.35 198.15 473.5 197.95 471.95 197.95 464.2
L 197.95 454.5 198 454.5
Q 199.2 456.05 202.7 460.2
L 216.45 476.2 217 476.2 217 458.4
Q 217 451 217.2 449.5 217.4 447.7 218.4 447.6
L 218.4 447.2 212.3 447.2 212.3 447.6
Q 213.45 447.7 213.7 449.5 213.9 451 213.9 458.25
L 213.9 468.75 213.85 468.75
Q 211.25 465.45 209.35 463.35
L 195.4 446.95 Z"/>
</g>

<g id="Symbol_1_0_Layer0_0_MEMBER_12_FILL">
<path fill="#FFFFFF" stroke="none" d="
M 235.05 447.7
Q 236.2 447.8 236.4 449.55 236.6 451 236.6 458.35
L 236.6 464.1
Q 236.6 471.9 236.4 473.45 236.15 475.3 235 475.4
L 235 475.9 241.7 475.9 241.7 475.4
Q 240.5 475.3 240.25 473.45 240.05 471.9 240.05 464.05
L 240.05 458.35
Q 240.05 451 240.25 449.5 240.45 447.8 241.5 447.65
L 241.5 447.2 235.05 447.2 235.05 447.7 Z"/>
</g>

<g id="Symbol_1_0_Layer0_0_MEMBER_13_FILL">
<path fill="#FFFFFF" stroke="none" d="
M 276.6 449.4
Q 276.3 450.65 273.6 457.35 270.8 464.4 269.15 469.1
L 269.05 469.1
Q 268.2 466.5 264.6 457.35 261.85 450.6 261.55 449.35 261.15 447.7 262.45 447.65
L 262.45 447.2 255.65 447.2 255.65 447.65
Q 256.55 447.75 257.45 449.5 258.35 451.15 261.3 458.35
L 268.7 476.25 269.25 476.25 276.6 458.35
Q 279.6 451.05 280.4 449.5 281.3 447.75 282.15 447.65
L 282.15 447.2 275.75 447.2 275.75 447.65
Q 277 447.75 276.6 449.4 Z"/>
</g>

<g id="Symbol_1_0_Layer0_0_MEMBER_14_FILL">
<path fill="#FFFFFF" stroke="none" d="
M 305.15 450.1
Q 307.15 450.1 307.9 450.4 308.8 450.8 308.9 451.85
L 309.35 451.85
Q 309.35 451.7 309.5 447.2
L 294.6 447.2 294.6 447.65
Q 295.6 447.7 295.8 449.5 295.95 451 295.95 458.35
L 295.95 464.05
Q 295.95 471.9 295.8 473.5 295.55 475.35 294.55 475.4
L 294.55 475.9 309.85 475.9
Q 309.85 473.25 310 471.3
L 309.55 471.3
Q 309.35 472.3 308.6 472.65 308 472.9 306.55 472.9
L 300.15 472.9
Q 299.65 472.85 299.5 472.75 299.4 472.6 299.4 472.05
L 299.4 462.65 304.55 462.65
Q 306.6 462.65 307.2 462.8 307.95 463 308.1 463.75
L 308.5 463.75 308.5 458.85 308.1 458.85
Q 307.95 459.5 307.15 459.65 306.6 459.75 304.45 459.75
L 299.4 459.75 299.4 450.1 305.15 450.1 Z"/>
</g>

<g id="Symbol_1_0_Layer0_0_MEMBER_15_FILL">
<path fill="#FFFFFF" stroke="none" d="
M 340.8 455.05
Q 340.8 452.2 339.25 450.2 337.95 448.55 336.05 447.9 333.95 447.1 331 447.1
L 324.65 447.25 324.65 447.7
Q 325.75 447.75 325.95 449.5 326.15 451 326.15 458.35
L 326.15 464.05
Q 326.15 471.9 325.95 473.5 325.75 475.35 324.65 475.4
L 324.65 475.9 330.9 475.9 330.9 475.4
Q 329.9 475.35 329.7 473.65 329.5 472.25 329.5 465.35
L 329.5 463.8 331.3 463.8 339.45 475.35
Q 340 475.9 340.75 475.9
L 344.85 475.9 344.85 475.4
Q 343.55 475.25 341.8 472.75
L 334.75 463.25 334.75 463.2
Q 336.05 462.8 337.35 461.85 340.8 459.4 340.8 455.05
M 337.25 455.25
L 337.25 455.3
Q 337.25 458.75 334.5 460.3 332.95 461.15 330.9 461.15
L 329.5 461.1 329.5 450.1
Q 330.2 450 331.4 450 334.15 450 335.7 451.45 337.25 452.85 337.25 455.25 Z"/>
</g>

<g id="Symbol_1_0_Layer0_0_MEMBER_16_FILL">
<path fill="#FFFFFF" stroke="none" d="
M 361.85 458
Q 360.1 456.35 360.1 454.25 360.1 452.3 361.5 451.1 362.85 449.95 365 449.95 366.35 449.95 367.25 450.45 368.25 451.05 368.45 452.3
L 368.85 452.3 369.05 447.6
Q 367.35 447 364.95 447 361.15 447 358.8 449.2 356.55 451.3 356.55 454.45 356.55 456.65 357.55 458.35 358.45 459.9 360.5 461.5 363.55 463.9 364.1 464.35 366.45 466.2 366.45 468.75 366.45 470.8 364.95 472.1 363.45 473.3 361.2 473.3 359.2 473.3 358.05 472.6 356.9 471.85 356.7 470.4
L 356.2 470.4
Q 356.2 472.9 356.05 475.3 358.1 476.2 361.2 476.2 365.35 476.2 367.8 473.9 370.05 471.8 370.05 468.6 370.05 466.2 368.8 464.3 367.8 462.75 365.7 461.15 362.4 458.55 361.85 458 Z"/>
</g>

<g id="Symbol_1_0_Layer0_0_MEMBER_17_FILL">
<path fill="#FFFFFF" stroke="none" d="
M 386.25 447.7
Q 387.4 447.8 387.6 449.55 387.8 451 387.8 458.35
L 387.8 464.1
Q 387.8 471.9 387.6 473.45 387.35 475.3 386.2 475.4
L 386.2 475.9 392.9 475.9 392.9 475.4
Q 391.7 475.3 391.45 473.45 391.25 471.9 391.25 464.05
L 391.25 458.35
Q 391.25 451 391.45 449.5 391.65 447.8 392.7 447.65
L 392.7 447.2 386.25 447.2 386.25 447.7 Z"/>
</g>

<g id="Symbol_1_0_Layer0_0_MEMBER_18_FILL">
<path fill="#FFFFFF" stroke="none" d="
M 425.8 450.05
Q 427.25 450.05 427.85 450.4 428.5 450.8 428.75 451.95
L 429.25 451.95 429.25 447.2 407.7 447.2 407.7 451.95 408.2 451.95
Q 408.45 450.8 409.1 450.4 409.7 450.05 411.2 450.05
L 416.8 450.05 416.8 464.05
Q 416.8 471.95 416.6 473.5 416.35 475.3 415.15 475.4
L 415.15 475.9 421.85 475.9 421.85 475.4
Q 420.65 475.35 420.4 473.5 420.2 471.95 420.2 464.05
L 420.2 450.05 425.8 450.05 Z"/>
</g>

<g id="Symbol_1_0_Layer0_0_MEMBER_19_FILL">
<path fill="#FFFFFF" stroke="none" d="
M 442 447.2
L 442 447.65
Q 442.8 447.75 443.9 449.5 444.6 450.65 448.75 458.4
L 451.95 464.5 451.95 465.55
Q 451.95 472.25 451.75 473.65 451.5 475.3 450.35 475.4
L 450.35 475.9 457.05 475.9 457.05 475.4
Q 455.85 475.3 455.6 473.65 455.4 472.35 455.4 465.55
L 455.4 464.25 458.5 458.45
Q 462.7 450.7 463.45 449.45 464.5 447.75 465.25 447.65
L 465.25 447.2 459 447.2 459 447.65
Q 460.15 447.7 459.75 449.05 459.4 450.15 457.05 454.65 454.45 459.6 453.8 461
L 453.75 461 450.5 454.65
Q 448.15 450 447.85 449.05 447.45 447.75 448.65 447.65
L 448.65 447.2 442 447.2 Z"/>
</g>

<g id="Symbol_1_0_Layer0_1_MEMBER_0_MEMBER_0_FILL">
<path fill="#4F3868" stroke="none" d="
M 338.45 298.25
L 338.45 272.75 271.55 272.75 271.55 298.4
Q 271.55 328.5 288.3 350.4 296.65 361.35 305 366.25 313.4 361.65 321.8 350.8 338.55 329.2 338.45 298.25 Z"/>
</g>

<g id="Symbol_1_0_Layer0_1_MEMBER_0_MEMBER_1_FILL">
<path fill="#FFFFFF" stroke="none" d="
M 339.7 298.1
L 339.7 271.5 270.3 271.5 270.3 298.4
Q 270.3 328.6 287.2 350.9 295.65 362.1 304.35 367.35
L 304.95 367.7 305.6 367.35
Q 314.35 362.45 322.85 351.35 339.85 329.3 339.7 298.1
M 337.15 298.25
Q 337.2 315.3 331.85 329.9 327.75 341 320.85 349.95 313.55 359.45 305 364.75 302.15 362.85 298.9 360 293.6 355.3 289.2 349.5 282.3 340.45 278.2 329.45 272.8 314.95 272.8 298.4
L 272.8 274.05 337.15 274.05 337.15 298.25 Z"/>
</g>

<g id="Symbol_1_0_Layer0_1_MEMBER_1_FILL">
<path fill="#FFFFFF" stroke="none" d="
M 324.65 315.95
Q 327.3 309.1 325.2 303.9 324.45 302.05 319.85 296 316.9 292.1 316.1 289.15
L 315.9 286.95 314.5 289.65
Q 312.9 292.85 312.1 295.15 311.15 298 312.3 301.5 312.9 303.25 313.65 304.4
L 318.8 311.95
Q 320.05 313.9 318.1 318.35 317.1 320.6 315.85 322.4
L 305.1 297.35
Q 302.4 291 302.6 286.55
L 303.35 283.35
Q 297.45 289.6 296.35 295.05 295.6 298.55 297 302.75
L 301.45 313.8 298 322.8 291.1 306.3
Q 289.6 302.4 290.3 298.75
L 291.3 295.85
Q 284 302.2 283.85 310.05 283.75 314.4 286.35 320.8 291.1 332.35 295 341.7
L 295.3 342.45 297.45 342.45
Q 297.7 342.45 297.85 342.2
L 304.3 320.8 313.05 342.45 315.15 342.45
Q 315.3 342.45 315.5 342.2 315.7 342 316.4 339.75
L 324.65 315.95 Z"/>
</g>
</defs>

<g transform="matrix( 0.6629638671875, 0, 0, 0.662841796875, 0,0.15) ">
<g transform="matrix( 1, 0, 0, 1, -141.8,-271.5) ">
<use xlink:href="#Symbol_1_0_Layer0_0_MEMBER_0_FILL"/>
</g>

<g transform="matrix( 1, 0, 0, 1, -141.8,-271.5) ">
<use xlink:href="#Symbol_1_0_Layer0_0_MEMBER_1_FILL"/>
</g>

<g transform="matrix( 1, 0, 0, 1, -141.8,-271.5) ">
<use xlink:href="#Symbol_1_0_Layer0_0_MEMBER_2_FILL"/>
</g>

<g transform="matrix( 1, 0, 0, 1, -141.8,-271.5) ">
<use xlink:href="#Symbol_1_0_Layer0_0_MEMBER_3_FILL"/>
</g>

<g transform="matrix( 1, 0, 0, 1, -141.8,-271.5) ">
<use xlink:href="#Symbol_1_0_Layer0_0_MEMBER_4_FILL"/>
</g>

<g transform="matrix( 1, 0, 0, 1, -141.8,-271.5) ">
<use xlink:href="#Symbol_1_0_Layer0_0_MEMBER_5_FILL"/>
</g>

<g transform="matrix( 1, 0, 0, 1, -141.8,-271.5) ">
<use xlink:href="#Symbol_1_0_Layer0_0_MEMBER_6_FILL"/>
</g>

<g transform="matrix( 1, 0, 0, 1, -141.8,-271.5) ">
<use xlink:href="#Symbol_1_0_Layer0_0_MEMBER_7_FILL"/>
</g>

<g transform="matrix( 1, 0, 0, 1, -141.8,-271.5) ">
<use xlink:href="#Symbol_1_0_Layer0_0_MEMBER_8_FILL"/>
</g>

<g transform="matrix( 1, 0, 0, 1, -141.8,-271.5) ">
<use xlink:href="#Symbol_1_0_Layer0_0_MEMBER_9_FILL"/>
</g>

<g transform="matrix( 1, 0, 0, 1, -141.8,-271.5) ">
<use xlink:href="#Symbol_1_0_Layer0_0_MEMBER_10_FILL"/>
</g>

<g transform="matrix( 1, 0, 0, 1, -141.8,-271.5) ">
<use xlink:href="#Symbol_1_0_Layer0_0_MEMBER_11_FILL"/>
</g>

<g transform="matrix( 1, 0, 0, 1, -141.8,-271.5) ">
<use xlink:href="#Symbol_1_0_Layer0_0_MEMBER_12_FILL"/>
</g>

<g transform="matrix( 1, 0, 0, 1, -141.8,-271.5) ">
<use xlink:href="#Symbol_1_0_Layer0_0_MEMBER_13_FILL"/>
</g>

<g transform="matrix( 1, 0, 0, 1, -141.8,-271.5) ">
<use xlink:href="#Symbol_1_0_Layer0_0_MEMBER_14_FILL"/>
</g>

<g transform="matrix( 1, 0, 0, 1, -141.8,-271.5) ">
<use xlink:href="#Symbol_1_0_Layer0_0_MEMBER_15_FILL"/>
</g>

<g transform="matrix( 1, 0, 0, 1, -141.8,-271.5) ">
<use xlink:href="#Symbol_1_0_Layer0_0_MEMBER_16_FILL"/>
</g>

<g transform="matrix( 1, 0, 0, 1, -141.8,-271.5) ">
<use xlink:href="#Symbol_1_0_Layer0_0_MEMBER_17_FILL"/>
</g>

<g transform="matrix( 1, 0, 0, 1, -141.8,-271.5) ">
<use xlink:href="#Symbol_1_0_Layer0_0_MEMBER_18_FILL"/>
</g>

<g transform="matrix( 1, 0, 0, 1, -141.8,-271.5) ">
<use xlink:href="#Symbol_1_0_Layer0_0_MEMBER_19_FILL"/>
</g>

<g transform="matrix( 1, 0, 0, 1, -141.8,-271.5) ">
<use xlink:href="#Symbol_1_0_Layer0_1_MEMBER_0_MEMBER_0_FILL"/>
</g>

<g transform="matrix( 1, 0, 0, 1, -141.8,-271.5) ">
<use xlink:href="#Symbol_1_0_Layer0_1_MEMBER_0_MEMBER_1_FILL"/>
</g>

<g transform="matrix( 1, 0, 0, 1, -141.8,-271.5) ">
<use xlink:href="#Symbol_1_0_Layer0_1_MEMBER_1_FILL"/>
</g>
</g>
</svg>
